<svg width="20" height="21" viewBox="0 0 20 21" fill="none" xmlns="http://www.w3.org/2000/svg">
<g clip-path="url(#clip0)">
<path d="M11.2049 5.40961V15.5301H9.75913V6.61443H7.46997V5.40961H11.2049Z" fill="#FF7200"/>
<path d="M10 20.4698C4.45783 20.4698 0 16.012 0 10.4698C0 4.92768 4.45783 0.469849 10 0.469849C15.5422 0.469849 20 4.92768 20 10.4698C20 16.012 15.5422 20.4698 10 20.4698ZM10 1.67467C5.18072 1.67467 1.20482 5.65057 1.20482 10.4698C1.20482 15.2891 5.18072 19.265 10 19.265C14.8193 19.265 18.7952 15.2891 18.7952 10.4698C18.7952 5.65057 14.8193 1.67467 10 1.67467Z" fill="#FF7200"/>
</g>
<defs>
<clipPath id="clip0">
<rect width="20" height="20" fill="white" transform="translate(0 0.469849)"/>
</clipPath>
</defs>
</svg>
