<svg width="20" height="21" viewBox="0 0 20 21" fill="none" xmlns="http://www.w3.org/2000/svg">
<g clip-path="url(#clip0)">
<g clip-path="url(#clip1)">
<path d="M13.9759 14.2524V15.4572H6.74694V14.4934L10.8433 10.6379C11.3253 10.156 11.6867 9.79456 11.8072 9.43312C11.9277 9.07167 12.0481 8.58974 12.0481 8.2283C12.0481 7.74637 11.8072 7.26444 11.4457 7.02348C11.0843 6.78251 10.6024 6.54155 9.87947 6.54155C8.79514 6.54155 7.95176 6.903 7.34935 7.62589L6.3855 6.903C6.74694 6.42107 7.22887 5.93914 7.95176 5.69818C8.55417 5.45721 9.27706 5.33673 10.1204 5.33673C11.2048 5.33673 12.0481 5.57769 12.6506 6.05962C13.253 6.54155 13.6144 7.26444 13.6144 8.10782C13.6144 8.58974 13.4939 9.19215 13.253 9.67408C13.012 10.156 12.5301 10.7584 11.9277 11.3608L8.79514 14.3729H13.9759V14.2524Z" fill="#FF7200"/>
<path d="M10 20.8789C4.45783 20.8789 0 16.4211 0 10.8789C0 5.33674 4.45783 0.878906 10 0.878906C15.5422 0.878906 20 5.33674 20 10.8789C20 16.4211 15.5422 20.8789 10 20.8789ZM10 2.08373C5.18072 2.08373 1.20482 6.05963 1.20482 10.8789C1.20482 15.6982 5.18072 19.6741 10 19.6741C14.8193 19.6741 18.7952 15.6982 18.7952 10.8789C18.7952 6.05963 14.8193 2.08373 10 2.08373Z" fill="#FF7200"/>
</g>
</g>
<defs>
<clipPath id="clip0">
<rect width="20" height="20" fill="white" transform="translate(0 0.469849)"/>
</clipPath>
<clipPath id="clip1">
<rect width="20" height="20" fill="white" transform="translate(0 0.878906)"/>
</clipPath>
</defs>
</svg>
